<?xml version="1.0" encoding="UTF-8" standalone="no"?>
<!-- Created with Inkscape (http://www.inkscape.org/) -->
<svg width="100mm" height="99.999458mm" viewBox="0 0 100 99.999458" version="1.1" id="svg535" inkscape:version="1.2.2 (b0a8486541, 2022-12-01)" sodipodi:docname="ACM Logo.svg" inkscape:export-filename="../../acm_logo.png" inkscape:export-xdpi="96" inkscape:export-ydpi="96" xmlns:inkscape="http://www.inkscape.org/namespaces/inkscape" xmlns:sodipodi="http://sodipodi.sourceforge.net/DTD/sodipodi-0.dtd" xmlns:xlink="http://www.w3.org/1999/xlink" xmlns="http://www.w3.org/2000/svg" xmlns:svg="http://www.w3.org/2000/svg">
  <sodipodi:namedview id="namedview537" pagecolor="#ffffff" bordercolor="#000000" borderopacity="0.25" inkscape:showpageshadow="2" inkscape:pageopacity="0.0" inkscape:pagecheckerboard="0" inkscape:deskcolor="#434343" inkscape:document-units="mm" showgrid="false" inkscape:zoom="1.885039" inkscape:cx="161.26988" inkscape:cy="206.09654" inkscape:window-width="1920" inkscape:window-height="1011" inkscape:window-x="0" inkscape:window-y="0" inkscape:window-maximized="1" inkscape:current-layer="layer1"/>
  <defs id="defs532">
    <linearGradient inkscape:collect="always" xlink:href="#linearGradient2173" id="linearGradient2175" x1="120.00053" y1="209.00696" x2="120.00053" y2="30.993078" gradientUnits="userSpaceOnUse"/>
    <linearGradient inkscape:collect="always" id="linearGradient2173">
      <stop style="stop-color:#000000;stop-opacity:0;" offset="0" id="stop2169"/>
      <stop style="stop-color:#000000;stop-opacity:0.47222221;" offset="1" id="stop2171"/>
    </linearGradient>
    <linearGradient inkscape:collect="always" xlink:href="#linearGradient2108" id="linearGradient2219" gradientUnits="userSpaceOnUse" x1="120" y1="70.882812" x2="120" y2="169.11133" gradientTransform="matrix(4.0446067,0,0,4.0446067,-125.35489,-845.3548)"/>
    <linearGradient inkscape:collect="always" id="linearGradient2108">
      <stop style="stop-color:#000000;stop-opacity:0;" offset="0" id="stop2104"/>
      <stop style="stop-color:#000000;stop-opacity:0.36944443;" offset="1" id="stop2106"/>
    </linearGradient>
  </defs>
  <g inkscape:label="Logo" inkscape:groupmode="layer" id="layer1" transform="matrix(2.0368518,0,0,2.0368518,-36.911086,-61.069208)">
    <rect style="display:none;opacity:0.994;fill:#000000;fill-opacity:1;stroke:#ffffff;stroke-width:0.137172;stroke-opacity:0.173267;paint-order:stroke fill markers" id="rect3709" width="49.095375" height="49.095375" x="18.121635" y="29.982157" inkscape:label="Backdrop"/>
    <path style="opacity:0.994;fill:#009a44;fill-opacity:1;stroke:#ffffff;stroke-width:0.2794;stroke-opacity:0.173267;paint-order:stroke fill markers" d="M 49.999717,2.0318992 97.967614,49.999923 50,97.967087 2.0318933,49.999725 50,2.0323787" id="path3600" transform="matrix(0.49095374,0,0,0.49095374,18.121635,29.982156)" inkscape:label="Kelly Green Backdrop"/>
    <g id="g922" transform="matrix(0.06541633,0,0,-0.06541633,19.119442,78.079716)" inkscape:label="Chapter Logo">
      <path id="path2166" style="opacity:0.993521;fill:url(#linearGradient2175);fill-opacity:1;stroke-width:1.056;stroke-dasharray:none;paint-order:stroke fill markers" inkscape:label="Diamond Backdrop" d="M 120,30.992188 30.992188,120 120,209.00781 209.00781,120 Z m 0,39.890625 A 49.115238,49.114262 0 0 1 169.11523,119.99805 49.115238,49.114262 0 0 1 120,169.11133 49.115238,49.114262 0 0 1 70.884765,119.99805 49.115238,49.114262 0 0 1 120,70.882813 Z" transform="matrix(4.0446067,0,0,-4.0446067,-125.3549,845.35479)"/>
      <path style="display:inline;fill:none;fill-opacity:1;stroke:#ffffff;stroke-width:21.5712;stroke-dasharray:none;stroke-opacity:1;paint-order:stroke fill markers" d="M 360.00002,0.0038577 720.00003,360.00049 360.00002,719.99998 8.466724e-6,360.00049 Z" id="path3179" inkscape:label="Encompasing Diamond"/>
      <ellipse style="opacity:0.993521;fill:url(#linearGradient2219);fill-opacity:1;stroke-width:4.2711;stroke-dasharray:none;paint-order:stroke fill markers" id="path2101-7" cx="359.99789" cy="-360.01382" rx="198.65182" ry="198.64787" transform="scale(1,-1)" inkscape:label="Circle Backdrop"/>
      <path id="path1448" style="fill:#ffffff;fill-opacity:1;fill-rule:nonzero;stroke:none" d="m 359.9979,580.72534 c -121.89488,0 -220.72335,-98.81748 -220.72335,-220.72335 0,-121.91788 98.82847,-220.72335 220.72335,-220.72335 121.91388,0 220.72335,98.80547 220.72335,220.72335 0,121.90587 -98.80947,220.72335 -220.72335,220.72335 z m 0,-22.06365 A 198.65247,198.64575 0 0 0 558.64971,360.00989 198.65247,198.64575 0 0 0 359.9979,161.36598 198.65247,198.64575 0 0 0 161.3461,360.00989 198.65247,198.64575 0 0 0 359.9979,558.66169 Z" inkscape:label="Inner Circle"/>
      <g inkscape:groupmode="layer" id="layer3" inkscape:label="Typography" transform="matrix(4.0446067,0,0,-4.0446067,-125.3549,845.35479)">
        <g aria-label="Chapter" transform="matrix(2.4724283,0,0,2.4724283,84.367635,152.05997)" id="text1964" style="font-weight:bold;font-size:8.5px;font-family:MyriadPro;-inkscape-font-specification:MyriadPro-Bold;fill:#ffffff" inkscape:label="Chapter (Flattented)">
          <path d="m 3.3405,-5.083 q -0.7395,0 -1.1305,0.5525 -0.391,0.5525 -0.391,1.513 0,0.969 0.357,1.5045 0.3655,0.527 1.1645,0.527 0.374,0 0.7395,-0.085 0.374,-0.085 0.8075,-0.238 v 1.0795 Q 4.488,-0.068 4.097,0.0085 3.706,0.085 3.2215,0.085 2.2865,0.085 1.6745,-0.2975 1.071,-0.6885 0.782,-1.3855 0.493,-2.091 0.493,-3.026 q 0,-0.918 0.3315,-1.6235 0.3315,-0.7055 0.9605,-1.105 0.6375,-0.3995 1.5555,-0.3995 0.4505,0 0.901,0.119 0.459,0.1105 0.8755,0.306 L 4.7005,-4.6835 Q 4.3605,-4.845 4.012,-4.964 3.672,-5.083 3.3405,-5.083 Z" id="path3891"/>
          <path d="m 6.7493195,-5.1425 q 0,0.34 -0.0255,0.6545 -0.017,0.3145 -0.034,0.442 h 0.068 q 0.221,-0.357 0.5695,-0.5185 0.3485,-0.1615 0.7735,-0.1615 0.7565,0 1.207,0.408 0.459,0.3995 0.459,1.292 V 0 h -1.2665 v -2.7115 q 0,-1.003 -0.748,-1.003 -0.5695,0 -0.7905,0.3995 -0.2125,0.391 -0.2125,1.1305 V 0 h -1.2665 v -6.46 h 1.2665 z" id="path3893"/>
          <path d="m 12.155368,-4.7345 q 0.935,0 1.428,0.408 0.5015,0.3995 0.5015,1.2325 V 0 h -0.884 l -0.2465,-0.629 h -0.034 q -0.2975,0.374 -0.629,0.544 -0.3315,0.17 -0.9095,0.17 -0.6205,0 -1.0285,-0.357 -0.4079996,-0.3655 -0.4079996,-1.1135 0,-0.7395 0.5184996,-1.088 0.5185,-0.357 1.5555,-0.391 l 0.8075,-0.0255 v -0.204 q 0,-0.3655 -0.1955,-0.5355 -0.187,-0.17 -0.527,-0.17 -0.34,0 -0.663,0.102 -0.323,0.0935 -0.646,0.238 l -0.4165,-0.8585 q 0.374,-0.1955 0.8245,-0.306 0.459,-0.1105 0.952,-0.1105 z m 0.1785,2.601 q -0.612,0.017 -0.85,0.221 -0.238,0.204 -0.238,0.5355 0,0.289 0.17,0.4165 0.17,0.119 0.442,0.119 0.408,0 0.6885,-0.238 0.2805,-0.2465 0.2805,-0.6885 v -0.3825 z" id="path3895"/>
          <path d="m 17.110267,-4.726 q 0.782,0 1.2665,0.612 0.4845,0.6035 0.4845,1.785 0,1.1815 -0.5015,1.802 -0.5015,0.612 -1.2835,0.612 -0.5015,0 -0.799,-0.1785 -0.2975,-0.187 -0.4845,-0.4165 h -0.068 q 0.068,0.357 0.068,0.68 v 1.87 h -1.2665 v -6.681 h 1.0285 l 0.1785,0.6035 h 0.0595 q 0.187,-0.2805 0.5015,-0.4845 0.3145,-0.204 0.816,-0.204 z m -0.408,1.0115 q -0.493,0 -0.697,0.306 -0.1955,0.306 -0.2125,0.935 v 0.136 q 0,0.6715 0.1955,1.037 0.204,0.357 0.731,0.357 0.4335,0 0.6375,-0.357 0.2125,-0.3655 0.2125,-1.0455 0,-1.3685 -0.867,-1.3685 z" id="path3897"/>
          <path d="m 21.351881,-0.9265 q 0.2125,0 0.408,-0.0425 0.1955,-0.0425 0.391,-0.102 v 0.9435 q -0.204,0.085 -0.51,0.1445 -0.2975,0.068 -0.6545,0.068 -0.4165,0 -0.748,-0.136 -0.323,-0.136 -0.5185,-0.4675 -0.187,-0.34 -0.187,-0.935 V -3.689 h -0.6035 v -0.5355 l 0.697,-0.425 0.3655,-0.9775 h 0.8075 v 0.986 h 1.3005 v 0.952 h -1.3005 v 2.2355 q 0,0.2635 0.153,0.3995 0.153,0.1275 0.3995,0.1275 z" id="path3899"/>
          <path d="m 24.174129,-4.726 q 0.9605,0 1.5215,0.5525 0.561,0.544 0.561,1.5555 v 0.612 h -2.992 q 0.017,0.5355 0.3145,0.8415 0.306,0.306 0.8415,0.306 0.4505,0 0.816,-0.085 0.3655,-0.0935 0.7565,-0.2805 v 0.9775 q -0.34,0.17 -0.7225,0.2465 -0.374,0.085 -0.9095,0.085 -0.697,0 -1.2325,-0.255 -0.5355,-0.2635 -0.8415,-0.7905 -0.306,-0.527 -0.306,-1.326 0,-0.816 0.272,-1.3515 0.2805,-0.544 0.7735,-0.816 0.493,-0.272 1.1475,-0.272 z m 0.0085,0.901 q -0.3655,0 -0.612,0.238 -0.238,0.238 -0.2805,0.7395 h 1.7765 q -0.0085,-0.425 -0.221,-0.697 -0.2125,-0.2805 -0.663,-0.2805 z" id="path3901"/>
          <path d="m 29.12952,-4.726 q 0.0935,0 0.221,0.0085 0.1275,0.0085 0.204,0.0255 l -0.0935,1.19 q -0.0595,-0.017 -0.1785,-0.0255 -0.1105,-0.017 -0.1955,-0.017 -0.323,0 -0.6205,0.119 -0.2975,0.1105 -0.4845,0.3655 -0.1785,0.255 -0.1785,0.697 V 0 h -1.2665 v -4.641 h 0.9605 l 0.187,0.782 h 0.0595 q 0.204,-0.357 0.561,-0.612 0.357,-0.255 0.8245,-0.255 z" id="path3903"/>
        </g>
        <text xml:space="preserve" style="font-variant:normal;font-weight:bold;font-size:21.0156px;font-family:MyriadPro;-inkscape-font-specification:MyriadPro-Bold;writing-mode:lr-tb;display:none;fill:#ffffff;fill-opacity:1;fill-rule:nonzero;stroke:none;stroke-width:2.47243" id="text1964-3" inkscape:label="Chapter" x="84.367638" y="152.05997"><tspan x="84.367638 96.284294 108.07419 118.64357 130.68581 137.76869 148.33928" y="152.05997" sodipodi:role="line" id="tspan1962-6" style="stroke-width:2.47243">Chapter</tspan></text>
        <path d="m 500.762,311.191 v 47.836 c 0,4.707 -0.098,8.692 -0.254,11.934 -0.176,3.223 -0.684,5.879 -1.543,7.93 -0.86,2.031 -2.188,3.535 -3.985,4.464 -1.796,0.946 -4.316,1.415 -7.578,1.415 -2.265,0 -4.531,-0.508 -6.738,-1.473 -2.226,-1.016 -4.668,-2.434 -7.285,-4.25 v -67.856 h -29.844 v 47.836 c 0,4.649 -0.097,8.614 -0.293,11.895 -0.215,3.262 -0.722,5.918 -1.582,7.969 -0.859,2.031 -2.187,3.535 -3.984,4.464 -1.797,0.946 -4.297,1.415 -7.481,1.415 -2.441,0 -4.843,-0.567 -7.187,-1.7 -2.344,-1.152 -4.629,-2.488 -6.836,-4.023 v -67.856 h -29.844 v 95.629 h 29.844 v -10.547 c 4.863,4.161 9.473,7.383 13.789,9.707 4.316,2.344 9.16,3.508 14.551,3.508 5.859,0 10.996,-1.398 15.41,-4.179 4.433,-2.786 7.812,-6.926 10.137,-12.434 5.742,5.332 11.152,9.434 16.23,12.305 5.078,2.871 10.234,4.308 15.449,4.308 4.434,0 8.399,-0.722 11.914,-2.14 3.536,-1.426 6.504,-3.543 8.946,-6.387 2.675,-3.066 4.668,-6.707 5.996,-10.945 1.347,-4.231 2.011,-9.758 2.011,-16.555 v -62.27 h -29.843" style="fill:#ffffff;fill-opacity:1;fill-rule:nonzero;stroke:none" id="path1958" transform="matrix(0.24724283,0,0,-0.24724283,30.9931,209.00791)" inkscape:label="M"/>
        <path d="m 339.668,308.73 c -7.91,0 -15.156,0.997 -21.719,2.989 -6.562,1.953 -12.265,5.039 -17.09,9.199 -4.785,4.121 -8.515,9.316 -11.191,15.586 -2.676,6.269 -4.004,13.652 -4.004,22.172 0,9.14 1.445,16.914 4.356,23.332 2.89,6.394 6.816,11.668 11.777,15.82 4.766,3.965 10.371,6.914 16.836,8.797 6.465,1.895 13.183,2.863 20.176,2.863 5.293,0 10.586,-0.617 15.879,-1.847 5.292,-1.2 10.605,-3.164 15.957,-5.828 v -25.598 h -3.848 c -1.192,1.133 -2.656,2.383 -4.395,3.75 -1.738,1.367 -3.632,2.637 -5.683,3.769 -2.149,1.204 -4.61,2.2 -7.324,3.028 -2.735,0.82 -5.782,1.23 -9.141,1.23 -7.637,0 -13.535,-2.637 -17.715,-7.949 -4.18,-5.293 -6.269,-12.402 -6.269,-21.367 0,-9.574 2.226,-16.723 6.699,-21.41 4.472,-4.688 10.39,-7.071 17.793,-7.071 3.75,0 7.051,0.45 9.902,1.289 2.852,0.821 5.293,1.856 7.344,3.028 1.992,1.191 3.691,2.402 5.117,3.691 1.426,1.25 2.656,2.402 3.672,3.399 h 3.848 v -25.489 c -1.719,-0.742 -3.692,-1.582 -5.938,-2.558 -2.246,-0.938 -4.531,-1.719 -6.855,-2.364 -2.911,-0.8 -5.625,-1.406 -8.164,-1.816 -2.52,-0.41 -5.879,-0.645 -10.02,-0.645" style="fill:#ffffff;fill-opacity:1;fill-rule:nonzero;stroke:none" id="path1956" transform="matrix(0.24724283,0,0,-0.24724283,30.9931,209.00791)" inkscape:label="C"/>
        <path d="m 244.336,336.23 v 19.829 c -5.02,-0.508 -9.063,-0.957 -12.148,-1.309 -3.106,-0.371 -6.153,-1.094 -9.122,-2.168 -2.597,-0.902 -4.609,-2.269 -6.054,-4.125 -1.426,-1.816 -2.149,-4.277 -2.149,-7.305 0,-4.472 1.211,-7.519 3.594,-9.199 2.383,-1.66 5.918,-2.48 10.606,-2.48 2.578,0 5.214,0.586 7.929,1.757 2.696,1.172 5.137,2.872 7.344,5 z m 0,-14.902 c -2.031,-1.699 -3.867,-3.223 -5.469,-4.57 -1.621,-1.387 -3.789,-2.754 -6.504,-4.102 -2.656,-1.289 -5.254,-2.285 -7.773,-2.929 -2.52,-0.645 -6.035,-0.997 -10.567,-0.997 -8.437,0 -15.449,2.833 -21.015,8.516 -5.586,5.664 -8.36,12.813 -8.36,21.445 0,7.129 1.407,12.832 4.239,17.211 2.832,4.375 6.914,7.832 12.226,10.391 5.391,2.598 11.797,4.414 19.278,5.449 7.48,1.016 15.507,1.817 24.121,2.383 v 0.508 c 0,5.273 -1.953,8.906 -5.821,10.918 -3.886,2.023 -9.687,3.027 -17.461,3.027 -3.496,0 -7.597,-0.644 -12.304,-1.933 -4.688,-1.29 -9.278,-2.93 -13.75,-4.922 h -2.539 v 23.164 c 2.949,0.859 7.715,1.855 14.316,3.027 6.582,1.172 13.223,1.758 19.922,1.758 16.484,0 28.496,-2.754 36.016,-8.242 7.519,-5.469 11.289,-13.848 11.289,-25.098 v -65.141 h -29.844 v 10.137" style="fill:#ffffff;fill-opacity:1;fill-rule:nonzero;stroke:none" id="path1954" transform="matrix(0.24724283,0,0,-0.24724283,30.9931,209.00791)" inkscape:label="A"/>
      </g>
    </g>
  </g>
</svg>