<svg width="256px" height="256px" viewBox="0 0 100 99.999458" version="1.1" xmlns="http://www.w3.org/2000/svg" xmlns:svg="http://www.w3.org/2000/svg">
    <defs>
        <rect
                x="7.3108567"
                y="7.0186711"
                width="364.57303"
                height="363.36906"/>
    </defs>
    <g transform="matrix(0.76318004,0,0,0.76318004,0.96414112,1.3334037)">
        <path style="fill:#2e7e31" d="m 49.02,111.67 c 0,0 -4.87,5.89 -9.35,7.86 -4.48,1.96 -7.54,1.96 -8.41,1.26 -0.86,-0.71 -0.86,-3.46 -0.86,-3.46 0,0 -1.65,3.69 -11.16,4.48 -9.51,0.79 -10.61,-1.26 -10.92,-2.51 -0.31,-1.26 1.49,-2.67 2.75,-4.4 1.26,-1.73 4.17,-6.52 4.17,-6.52 0,0 -3.14,0.47 -3.46,-1.02 -0.31,-1.49 1.49,-3.46 2.67,-5.34 1.18,-1.89 2.59,-4.09 4.87,-5.58 2.28,-1.49 22.11,-20.01 22.11,-20.01 l 11.7,7.55 z"/>
        <path style="fill:#5b9922" d="m 25.01,107.71 c 1.21,1.17 3.77,-0.71 6.83,-2.73 3.06,-2.02 5.19,-3.5 4.32,-5.03 -0.87,-1.53 -4.37,-0.93 -7.43,1.86 -2.64,2.39 -5.09,4.59 -3.72,5.9 z"/>
        <path style="fill:#2e7e31" d="m 84.23,109.21 c 0,0 4.41,3.1 8.73,4.88 4.32,1.78 8.34,3.46 9.86,2.41 1.8,-1.25 1.12,-4.28 1.12,-4.28 0,0 2.82,2.91 8.17,4.13 5.35,1.22 10.89,1.69 11.17,1.13 0.28,-0.56 -0.66,-6.95 -2.25,-10.61 -1.59,-3.66 -3.94,-6.38 -3.94,-6.38 0,0 3.47,0.09 3.94,-1.6 0.47,-1.69 -3.92,-8.72 -9.33,-13.32 -4.47,-3.8 -17.81,-7.06 -17.81,-7.06 l -13.24,5.07 z"/>
        <path style="fill:#5a9821" d="m 100.78,95.69 c -0.93,1.06 0.37,2.48 4.1,6.09 3.73,3.6 5.53,5.96 6.58,4.91 1.06,-1.06 -0.06,-4.04 -4.1,-8.07 -4.04,-4.03 -5.45,-4.21 -6.58,-2.93 z"/>
        <path style="fill:#ea4b8d" d="m 94.9,42.63 c -0.84,-0.93 12.29,-8.72 10.85,-16.59 -1.43,-7.87 -5.64,-7.3 -8.27,-10.1 -2.63,-2.8 -1.57,-5.81 -7.8,-9.17 -5.56,-3 -9.01,0.46 -11.14,0.17 -4.78,-0.65 -9.01,-3.91 -15,0.7 -5.99,4.61 -4.08,15.38 -3.91,16.94 0.17,1.56 0.44,5.53 -0.19,5.81 C 58.81,30.67 56.09,16.21 52.43,14.03 43.97,8.99 42,14.2 42,14.2 c 0,0 -10.36,-9.72 -19.78,-2.88 -8.1,5.88 -3.1,16.36 -3.24,17.53 -0.14,1.17 -4.53,2.99 -3.78,9.44 1,8.58 13.73,10.76 13.67,12.59 -0.05,1.53 -14.99,-5.07 -20.78,2.84 -3.77,5.14 -1.02,9.06 -1.12,10.94 -0.11,1.88 -5.6,6.21 -2.33,15.32 2.62,7.28 7.92,6.83 9.16,8.28 1.24,1.45 1.69,6.19 7.52,7.95 5.83,1.76 11.26,-1.57 14.03,-3.97 2.77,-2.4 4.99,-4.45 6.04,-4.33 1.1,0.13 -7.19,11.46 1.08,21.16 4.49,5.26 7.91,4.14 9.29,4.54 1.38,0.4 2.23,5.12 12.75,6.25 10.52,1.13 11.26,-5.05 13.95,-5.8 2.69,-0.75 10.06,-1.11 12.5,-11.54 2.03,-8.63 -4.85,-16.4 -3.93,-17.12 0.91,-0.72 7.56,9.21 19.88,4.88 6.46,-2.27 6.8,-8.74 6.8,-8.74 0,0 10.37,-4.19 11.18,-15.6 0.64,-8.91 -7.26,-13.22 -7.72,-14.34 -0.46,-1.12 -0.58,-5.9 -5.65,-9.39 -6.46,-4.41 -15.79,1.35 -16.62,0.42 z"/>
        <path style="fill:#c10375" d="m 67.54,42.8 c 0,0 7.14,-11.08 11.9,-8.22 3.58,2.15 -4.65,12.33 -4.65,12.33 0,0 8.79,-6.27 10.49,-3.59 2.29,3.61 -4.64,9.1 -4.64,9.1 0,0 10.88,-3.98 12.7,0.25 2.09,4.87 -13.41,7.16 -13.41,7.16 0,0 15.39,-0.39 14.74,5.03 -0.54,4.51 -15.31,1.59 -15.31,1.59 0,0 9.53,8.37 6.3,11.44 -3.89,3.7 -14.67,-6.22 -14.67,-6.22 0,0 -0.76,14.26 -5.39,14.83 -4.81,0.59 -7.85,-14.31 -7.85,-14.31 0,0 -5.95,11.78 -9.91,9.05 -3.44,-2.38 1.13,-10.53 1.13,-10.53 0,0 -10.58,8.56 -13.33,5.02 -2.75,-3.54 8.16,-11.84 8.16,-11.84 0,0 -11.61,1.8 -12.18,-4.04 -0.57,-5.88 12.04,-7.03 12.04,-7.03 0,0 -5.21,-1.32 -4.59,-4.63 0.62,-3.31 11.48,0.49 11.48,0.49 0,0 -5.39,-6.84 -2.97,-9.37 3.89,-4.08 13.53,7.1 13.53,7.1 0,0 1.35,-12.97 5.3,-12.05 3.13,0.72 1.13,8.44 1.13,8.44 z"/>
        <path style="fill:#fdc11e" d="m 49.75,28.12 c 0,0 4.38,2.8 9.85,10.45 7.56,10.58 9.33,17.54 9.33,17.54 0,0 -0.52,4.45 -4.62,5.31 -4.92,1.03 -6.74,-2.67 -6.74,-2.67 0,0 -0.81,-7.8 -4.93,-15.05 -3.54,-6.22 -8.59,-10.75 -8.59,-10.75 0,0 -2.68,1.82 -5.56,0.72 -2.88,-1.1 -3.48,-4.14 -3.48,-4.14 0,0 -4.04,0.37 -5.43,-3 -1.39,-3.37 0.61,-6.12 0.61,-6.12 0,0 -4.9,-4.96 -0.23,-8.36 3.71,-2.69 7.18,1.85 7.18,1.85 0,0 2.86,-1.21 5.42,0.28 2.56,1.49 2.05,5 2.05,5 0,0 3.64,0.74 4.51,3.37 0.92,2.77 0.63,5.57 0.63,5.57 z"/>
        <path style="fill:#fee165" d="m 38.28,24.96 c -1.32,1.95 -0.65,4.44 1.71,5.14 2.36,0.7 3.53,-0.57 4.15,-2.06 0.62,-1.49 -0.33,-3.4 -1.62,-4.07 -1.29,-0.67 -3.12,-0.67 -4.24,0.99 z"/>
        <path style="fill:#fee165" d="m 35.13,21.59 c -1.45,-1.02 -3.11,-0.98 -4.1,0.62 -0.99,1.6 -0.12,3.64 1.05,4.3 1.17,0.67 3.11,0.79 3.97,-0.56 1.06,-1.67 0.49,-3.37 -0.92,-4.36 z"/>
        <path style="fill:#fee165" d="m 31.19,13.43 c -2.23,1 -1.96,4.08 -0.35,4.95 1.61,0.87 4.07,0.2 4.28,-2.12 0.17,-2 -1.44,-3.94 -3.93,-2.83 z"/>
        <path style="fill:#fee165" d="m 38.32,16.05 c -1.92,1 -2.01,3.65 -0.92,4.93 1.33,1.55 5.04,1.42 5.2,-1.65 0.16,-3.07 -2.23,-4.34 -4.28,-3.28 z"/>
    </g>
</svg>